<svg xmlns="http://www.w3.org/2000/svg" viewBox="0 0 403.78 96.33"><defs><style>.cls-1{fill:#1d2653;}.cls-2{fill:#db2727;}.cls-3{fill:#f7fafb;}.cls-4{fill:#d12027;}</style></defs><g id="Layer_2" data-name="Layer 2"><g id="Layer_23" data-name="Layer 23"><polygon class="cls-1" points="125.39 56.02 125.39 68.69 75 68.69 75 5.8 124.15 5.8 124.15 18.51 91.44 18.51 91.44 31.25 117.43 31.25 117.43 43.17 91.44 43.17 91.44 56.05 125.39 56.05 125.39 56.02"/><polygon class="cls-1" points="183.29 56.02 183.29 68.69 135.21 68.69 135.21 5.8 151.65 5.8 151.65 56.05 183.29 56.05 183.29 56.02"/><path class="cls-1" d="M222,57.19c5.93,0,8.9-2.48,8.9-7s-3-6.87-8.9-6.87H208.56V57.22H222Zm-1.65-25.66c5.93,0,8.93-2.3,8.93-6.87s-3-6.87-8.93-6.87H208.56V31.53ZM192.67,5.8h30.67c15.58.14,22.75,6,22.75,17,0,7.15-4.2,12.78-12.79,14.12V37c9.66,1.34,14.45,7.15,14.45,14.77,0,10.85-7.76,17-23,17H192.67Z"/><path class="cls-1" d="M274.11,34.11h11.17c7,0,10-2.37,10-8s-3-7.9-10-7.9H274.11Zm9.83,11.61h-9.86v23H257.91V5.8H288c15.24,0,23.82,7.05,23.82,20,0,9.13-4.31,15.32-12.24,18.2l16,24.66H297.38l-13.48-23Z"/><path class="cls-2" d="M321,7.8c0-5.43,2.86-7.8,9.45-7.8s9.47,2.37,9.47,7.8-2.86,7.69-9.47,7.69S321,13.12,321,7.8Z"/><rect class="cls-1" x="322.33" y="21.06" width="16.23" height="47.64"/><polygon class="cls-1" points="403.78 18.48 383.2 18.48 383.2 68.69 366.76 68.69 366.76 18.48 346.11 18.48 346.11 5.8 403.78 5.8 403.78 18.51 403.78 18.48"/><rect class="cls-2" y="5.8" width="63.11" height="62.89"/><path class="cls-3" d="M10.86,34.45a20.89,20.89,0,0,1,41.39,0ZM31.57,10.89A26.39,26.39,0,0,0,5.14,37.23V40H58V37.23A26.42,26.42,0,0,0,31.57,10.89Z"/><path class="cls-3" d="M31.57,58.05a20.8,20.8,0,0,1-17.4-9.48L9.44,51.45A25.94,25.94,0,0,0,31.57,63.58,26,26,0,0,0,53.7,51.45L49,48.57A20.81,20.81,0,0,1,31.57,58.05Z"/><path class="cls-4" d="M402,92.35a1.76,1.76,0,0,1,1.24,3,1.7,1.7,0,0,1-1.24.52,1.68,1.68,0,0,1-1.26-.52,1.77,1.77,0,0,1,0-2.5,1.76,1.76,0,0,1,1.27-.52m-16.73.85h4.05a6.18,6.18,0,0,0,2.91-.53q2.08-1.14,2.08-4.42a5.29,5.29,0,0,0-1.12-3.64,3.51,3.51,0,0,0-1.51-1,7.65,7.65,0,0,0-2.36-.29h-4.05Zm-3.22,1.3V82a.76.76,0,0,0-.15-.51,1.13,1.13,0,0,0-.54-.28v-.35h8.23a11,11,0,0,1,4.15.62,6,6,0,0,1,3.07,3,8.57,8.57,0,0,1,.79,3.8,7.23,7.23,0,0,1-2.35,5.82,5.82,5.82,0,0,1-2.3,1.2,13,13,0,0,1-3.36.37h-8.23v-.35a1.13,1.13,0,0,0,.54-.28.78.78,0,0,0,.15-.51m-7.87-11.19V94.5a.78.78,0,0,0,.15.51,1.13,1.13,0,0,0,.54.28v.35h-4.61v-.35a1.13,1.13,0,0,0,.54-.28.78.78,0,0,0,.15-.51V83.31h-4.58a.73.73,0,0,0-.5.14,1.13,1.13,0,0,0-.28.54h-.35V80.17h.35a1.12,1.12,0,0,0,.29.55.7.7,0,0,0,.49.15h12.38a.74.74,0,0,0,.51-.15,1.12,1.12,0,0,0,.28-.55h.35V84h-.35a1.13,1.13,0,0,0-.28-.54.74.74,0,0,0-.51-.14ZM356.4,93.2h9.07a.78.78,0,0,0,.51-.15,1.22,1.22,0,0,0,.28-.54h.34v3.82h-.34a1.22,1.22,0,0,0-.28-.54.78.78,0,0,0-.51-.15h-13v-.35A1.13,1.13,0,0,0,353,95a.78.78,0,0,0,.15-.51V82a.76.76,0,0,0-.15-.51,1.13,1.13,0,0,0-.54-.28v-.35h4.61v.35a1,1,0,0,0-.54.28.76.76,0,0,0-.15.51Zm-14.18-.85A1.76,1.76,0,0,1,344,94.13a1.79,1.79,0,0,1-1.77,1.76,1.77,1.77,0,0,1-1.27-3,1.76,1.76,0,0,1,1.27-.52m-7.41-9V94.5A.78.78,0,0,0,335,95a1.13,1.13,0,0,0,.54.28v.35h-4.61v-.35a1.13,1.13,0,0,0,.54-.28.78.78,0,0,0,.15-.51V83.31H327a.75.75,0,0,0-.5.14,1.13,1.13,0,0,0-.28.54h-.35V80.17h.35a1.12,1.12,0,0,0,.29.55.7.7,0,0,0,.49.15h12.38a.74.74,0,0,0,.51-.15,1,1,0,0,0,.28-.55h.35V84h-.35a1,1,0,0,0-.28-.54.74.74,0,0,0-.51-.14Zm-18.42,8,3.91-8.67a2.21,2.21,0,0,0,.25-.86c0-.31-.24-.51-.71-.6v-.35h5.05v.35a1,1,0,0,0-.66.27,5.76,5.76,0,0,0-.64,1.19l-5.12,11a3.14,3.14,0,0,0-.32.92c0,.37.23.58.68.65v.35h-5.08v-.35c.45-.07.68-.29.68-.66a3,3,0,0,0-.33-.91l-5.11-11a6.32,6.32,0,0,0-.64-1.19,1,1,0,0,0-.66-.27v-.35h5.25v.35q-.72.14-.72.6a2.41,2.41,0,0,0,.25.86Zm-20.32-4.14H301a4.76,4.76,0,0,0,2.06-.31,1.46,1.46,0,0,0,.61-.66,2.14,2.14,0,0,0,0-2,1.43,1.43,0,0,0-.61-.65,4.73,4.73,0,0,0-2.06-.31h-4.92Zm0,2.43v4.87a.75.75,0,0,0,.15.5,1.09,1.09,0,0,0,.54.28v.35h-4.61v-.35a1.13,1.13,0,0,0,.54-.28.75.75,0,0,0,.15-.5V82a.76.76,0,0,0-.15-.51,1.13,1.13,0,0,0-.54-.28v-.35h9.22a12.16,12.16,0,0,1,2.55.22,4.31,4.31,0,0,1,1.67.75,3.62,3.62,0,0,1,1.17,1.44,4.6,4.6,0,0,1,.43,2,4.36,4.36,0,0,1-.81,2.62,3.75,3.75,0,0,1-1.83,1.37,9.88,9.88,0,0,1-3.18.4ZM284.4,82.12l-1.77,3.47-.3-.17a1.28,1.28,0,0,0,0-.18c0-.24-.21-.51-.62-.79a7.78,7.78,0,0,0-4.53-1.34,6.89,6.89,0,0,0-2,.28,2.56,2.56,0,0,0-1,.65,1.41,1.41,0,0,0-.4.95c0,.55.34.92,1,1.13a15.43,15.43,0,0,0,2.23.32l1.7.18a12.86,12.86,0,0,1,2.44.44,5.67,5.67,0,0,1,1.66.79A3.79,3.79,0,0,1,284,89.24a4.32,4.32,0,0,1-.58,4.62,5.46,5.46,0,0,1-2.82,1.64,11.68,11.68,0,0,1-3.07.39,12.91,12.91,0,0,1-5.78-1.4,2.86,2.86,0,0,0-.72-.28.88.88,0,0,0-.45.23l-.31-.16,1.6-3.62.31.15V91a1.19,1.19,0,0,0,.47.9,5.83,5.83,0,0,0,2.17,1.08,9.54,9.54,0,0,0,2.79.45A5.66,5.66,0,0,0,280,92.9a2.32,2.32,0,0,0,.9-.72,1.51,1.51,0,0,0,.34-.94,1.09,1.09,0,0,0-.79-1,10.82,10.82,0,0,0-2.23-.39l-1.66-.18a20.11,20.11,0,0,1-2.37-.33,5.81,5.81,0,0,1-1.39-.5,3.55,3.55,0,0,1-1.54-1.46,3.93,3.93,0,0,1-.51-2,4.1,4.1,0,0,1,1.29-3.1,7.08,7.08,0,0,1,5.06-1.61,11.52,11.52,0,0,1,2.63.29,20.33,20.33,0,0,1,3.06,1,3.35,3.35,0,0,0,.76.26.87.87,0,0,0,.53-.26Zm-26.66,7v4h9.5a.75.75,0,0,0,.5-.15,1.13,1.13,0,0,0,.28-.54h.35v3.82H268a1.13,1.13,0,0,0-.28-.54.75.75,0,0,0-.5-.15H253.83v-.35a1.13,1.13,0,0,0,.54-.28.78.78,0,0,0,.15-.51V82a.76.76,0,0,0-.15-.51,1.13,1.13,0,0,0-.54-.28v-.35H267a.73.73,0,0,0,.5-.15,1.22,1.22,0,0,0,.28-.55h.35V84h-.35a1.08,1.08,0,0,0-.28-.53.73.73,0,0,0-.5-.15h-9.24v3.5h6a.76.76,0,0,0,.5-.15,1.33,1.33,0,0,0,.28-.55h.34v3.74h-.34a1.23,1.23,0,0,0-.28-.53.72.72,0,0,0-.5-.16Zm-8.18,1.4,2.05,3.08-.28.2a.82.82,0,0,0-.5-.28,3.76,3.76,0,0,0-1.09.52,15.35,15.35,0,0,1-3.13,1.44,10.75,10.75,0,0,1-3,.37,9.4,9.4,0,0,1-5.73-1.65,6.82,6.82,0,0,1-2.08-2.39,7.44,7.44,0,0,1-.88-3.6,7.31,7.31,0,0,1,1.57-4.66c1.58-2,3.95-3,7.13-3a11,11,0,0,1,3,.37,15.67,15.67,0,0,1,3.13,1.45,3.9,3.9,0,0,0,1.09.51.88.88,0,0,0,.5-.28l.28.19-2.05,3.08-.3-.19a1.78,1.78,0,0,0,0-.29.83.83,0,0,0-.27-.59,4.21,4.21,0,0,0-1-.67A8.19,8.19,0,0,0,244,83.11a6,6,0,0,0-4,1.27,5.1,5.1,0,0,0,0,7.74,6.06,6.06,0,0,0,4,1.26,8.08,8.08,0,0,0,4.05-1.08,4.59,4.59,0,0,0,1-.66.84.84,0,0,0,.27-.59,1.49,1.49,0,0,0,0-.28Zm-29.87-5v9a.78.78,0,0,0,.15.51,1.13,1.13,0,0,0,.54.28v.35H216v-.35a1.13,1.13,0,0,0,.54-.28.78.78,0,0,0,.15-.51V82a.75.75,0,0,0-.15-.5,1.13,1.13,0,0,0-.54-.28v-.35h5v.35c-.31.08-.47.24-.47.5a.86.86,0,0,0,.31.57L229,90.76V82a.75.75,0,0,0-.15-.5,1.13,1.13,0,0,0-.54-.28v-.35h4.34v.35a1.13,1.13,0,0,0-.54.28.75.75,0,0,0-.16.5V94.5a.78.78,0,0,0,.16.51,1.13,1.13,0,0,0,.54.28v.35H228v-.35c.3-.07.45-.22.45-.47s-.18-.39-.53-.75Zm-16.56,3.64v4h9.49a.75.75,0,0,0,.5-.15,1.13,1.13,0,0,0,.28-.54h.35v3.82h-.35a1.13,1.13,0,0,0-.28-.54.75.75,0,0,0-.5-.15H199.21v-.35a1.13,1.13,0,0,0,.54-.28.78.78,0,0,0,.15-.51V82a.76.76,0,0,0-.15-.51,1.13,1.13,0,0,0-.54-.28v-.35h13.15a.73.73,0,0,0,.5-.15,1.22,1.22,0,0,0,.28-.55h.35V84h-.35a1.08,1.08,0,0,0-.28-.53.73.73,0,0,0-.5-.15h-9.23v3.5h6a.76.76,0,0,0,.5-.15,1.33,1.33,0,0,0,.28-.55h.34v3.74h-.34a1.23,1.23,0,0,0-.28-.53.72.72,0,0,0-.5-.16ZM192.64,94.5V82a.75.75,0,0,0-.15-.5,1.13,1.13,0,0,0-.54-.28v-.35h4.61v.35a1,1,0,0,0-.54.28.75.75,0,0,0-.15.5V94.5A.73.73,0,0,0,196,95a1.05,1.05,0,0,0,.53.28v.35H192v-.35a1.13,1.13,0,0,0,.54-.28.78.78,0,0,0,.15-.51m-5-3.94,2.06,3.08-.29.2a.83.83,0,0,0-.49-.28,3.76,3.76,0,0,0-1.1.52,15.35,15.35,0,0,1-3.13,1.44,10.7,10.7,0,0,1-3,.37A9.4,9.4,0,0,1,176,94.24a7,7,0,0,1-2.08-2.39,7.54,7.54,0,0,1-.87-3.6,7.25,7.25,0,0,1,1.57-4.66c1.57-2,3.94-3,7.12-3a11,11,0,0,1,3,.37,15.67,15.67,0,0,1,3.13,1.45,3.9,3.9,0,0,0,1.1.51.89.89,0,0,0,.49-.28l.29.19-2.06,3.08-.29-.19c0-.12,0-.21,0-.29a.83.83,0,0,0-.27-.59,4.33,4.33,0,0,0-1-.67,8.25,8.25,0,0,0-4.06-1.08,6,6,0,0,0-4,1.27,5.12,5.12,0,0,0,0,7.74,6.08,6.08,0,0,0,4,1.26,8.15,8.15,0,0,0,4.06-1.08,4.74,4.74,0,0,0,1-.66.84.84,0,0,0,.27-.59c0-.08,0-.18,0-.28Zm-16.53-8.44-1.76,3.47-.3-.17a1.28,1.28,0,0,0,0-.18c0-.24-.21-.51-.63-.79A7.73,7.73,0,0,0,164,83.11a6.89,6.89,0,0,0-2,.28,2.5,2.5,0,0,0-1,.65,1.41,1.41,0,0,0-.4.95c0,.55.34.92,1,1.13a15.19,15.19,0,0,0,2.23.32l1.7.18a13,13,0,0,1,2.44.44,5.67,5.67,0,0,1,1.66.79,3.67,3.67,0,0,1,1.16,1.39,4.09,4.09,0,0,1,.43,1.85,4.2,4.2,0,0,1-1,2.77,5.45,5.45,0,0,1-2.83,1.64,11.55,11.55,0,0,1-3.06.39,12.91,12.91,0,0,1-5.78-1.4,2.72,2.72,0,0,0-.73-.28.86.86,0,0,0-.44.23l-.31-.16,1.6-3.62.31.15V91a1.19,1.19,0,0,0,.47.9,5.75,5.75,0,0,0,2.17,1.08,9.54,9.54,0,0,0,2.79.45,5.66,5.66,0,0,0,2.45-.48,2.32,2.32,0,0,0,.9-.72,1.57,1.57,0,0,0,.34-.94,1.09,1.09,0,0,0-.8-1A10.54,10.54,0,0,0,165,89.8l-1.67-.18a20.79,20.79,0,0,1-2.37-.33,5.9,5.9,0,0,1-1.38-.5A3.55,3.55,0,0,1,158,87.33a3.93,3.93,0,0,1-.51-2,4.09,4.09,0,0,1,1.28-3.1,7.11,7.11,0,0,1,5.07-1.61,11.52,11.52,0,0,1,2.63.29,20.33,20.33,0,0,1,3.06,1,3.35,3.35,0,0,0,.76.26.87.87,0,0,0,.53-.26Zm-32.18,7v4h9.49a.75.75,0,0,0,.5-.15,1.13,1.13,0,0,0,.28-.54h.35v3.82h-.35a1.13,1.13,0,0,0-.28-.54.75.75,0,0,0-.5-.15H135.05v-.35a1.13,1.13,0,0,0,.54-.28.78.78,0,0,0,.15-.51V82a.76.76,0,0,0-.15-.51,1.13,1.13,0,0,0-.54-.28v-.35H148.2a.73.73,0,0,0,.5-.15,1.22,1.22,0,0,0,.28-.55h.35V84H149a1.08,1.08,0,0,0-.28-.53.73.73,0,0,0-.5-.15H139v3.5h6a.75.75,0,0,0,.5-.15,1.33,1.33,0,0,0,.28-.55h.34v3.74h-.34a1.23,1.23,0,0,0-.28-.53.7.7,0,0,0-.5-.16Zm-16.12,0V94.5A.73.73,0,0,0,123,95a1,1,0,0,0,.54.28v.35h-4.62v-.35a1.17,1.17,0,0,0,.55-.28.78.78,0,0,0,.15-.51V82a.76.76,0,0,0-.15-.51,1.17,1.17,0,0,0-.55-.28v-.35H132a.75.75,0,0,0,.5-.15,1.21,1.21,0,0,0,.28-.55h.34V84h-.34a1.22,1.22,0,0,0-.28-.54.75.75,0,0,0-.5-.14h-9.15v3.52h6a.74.74,0,0,0,.51-.15,1.13,1.13,0,0,0,.28-.55H130v3.73h-.35a1.05,1.05,0,0,0-.28-.53.74.74,0,0,0-.51-.15ZM112.37,94.5V82a.75.75,0,0,0-.15-.5,1.13,1.13,0,0,0-.54-.28v-.35h4.61v.35a1.13,1.13,0,0,0-.55.28.75.75,0,0,0-.15.5V94.5a.73.73,0,0,0,.16.51,1.09,1.09,0,0,0,.54.28v.35h-4.61v-.35a1.13,1.13,0,0,0,.54-.28.78.78,0,0,0,.15-.51M99.92,93.2H109a.74.74,0,0,0,.51-.15,1,1,0,0,0,.28-.54h.35v3.82h-.35a1,1,0,0,0-.28-.54.74.74,0,0,0-.51-.15H96v-.35a1.18,1.18,0,0,0,.54-.28.78.78,0,0,0,.15-.51V82a.76.76,0,0,0-.15-.51,1.18,1.18,0,0,0-.54-.28v-.35h4.61v.35a1.13,1.13,0,0,0-.55.28.76.76,0,0,0-.15.51ZM83.29,83.31V94.5a.78.78,0,0,0,.15.51,1.13,1.13,0,0,0,.54.28v.35H79.37v-.35a1.13,1.13,0,0,0,.54-.28.78.78,0,0,0,.15-.51V83.31H75.48a.73.73,0,0,0-.5.14,1.13,1.13,0,0,0-.28.54h-.35V80.17h.35a1.12,1.12,0,0,0,.29.55.7.7,0,0,0,.49.15H87.86a.74.74,0,0,0,.51-.15,1.12,1.12,0,0,0,.28-.55H89V84h-.35a1.13,1.13,0,0,0-.28-.54.74.74,0,0,0-.51-.14ZM69,94.5V82a.75.75,0,0,0-.16-.5,1.13,1.13,0,0,0-.54-.28v-.35h4.61v.35a1,1,0,0,0-.54.28.75.75,0,0,0-.15.5V94.5a.73.73,0,0,0,.16.51,1.05,1.05,0,0,0,.53.28v.35H68.27v-.35a1.13,1.13,0,0,0,.54-.28A.78.78,0,0,0,69,94.5M54.28,87.18h5a13,13,0,0,0,1.56-.07,2.32,2.32,0,0,0,.83-.27,1.64,1.64,0,0,0,.82-1.6,1.66,1.66,0,0,0-.82-1.6,2.4,2.4,0,0,0-.83-.28,14.13,14.13,0,0,0-1.56,0h-5Zm0,2.43v4.9a.7.7,0,0,0,.16.5,1.05,1.05,0,0,0,.53.28v.35H50.36v-.35A1.13,1.13,0,0,0,50.9,95a.75.75,0,0,0,.15-.5V82a.76.76,0,0,0-.15-.51,1.13,1.13,0,0,0-.54-.28v-.35H59.6a14.3,14.3,0,0,1,2.67.2,4.68,4.68,0,0,1,1.73.68,3.46,3.46,0,0,1,1.28,1.52,5.12,5.12,0,0,1,.4,2q0,3.61-4,4.23l2.87,4.08A9.6,9.6,0,0,0,65.64,95a1.43,1.43,0,0,0,.86.34v.35H61.16v-.35c.37-.06.55-.19.55-.39A2.69,2.69,0,0,0,61.2,94l-3-4.35ZM36.42,93.2h5.47a4.33,4.33,0,0,0,2.2-.42,1.73,1.73,0,0,0,.77-1.59,1.76,1.76,0,0,0-.77-1.59,4.28,4.28,0,0,0-2.2-.42H36.42Zm0-6.45h5.66a3.13,3.13,0,0,0,1.79-.38A1.59,1.59,0,0,0,44.45,85a1.57,1.57,0,0,0-.54-1.33,3.23,3.23,0,0,0-1.83-.39H36.42Zm9.24,1.15a3.48,3.48,0,0,1,2.48,3.49,3.79,3.79,0,0,1-1.45,3.16,4.43,4.43,0,0,1-1.7.83,9.47,9.47,0,0,1-2.39.26H32.5v-.35A1.13,1.13,0,0,0,33,95a.73.73,0,0,0,.16-.51V82A.71.71,0,0,0,33,81.5a1.13,1.13,0,0,0-.54-.28v-.35h10a10.12,10.12,0,0,1,2.31.22,4,4,0,0,1,1.54.73,3.57,3.57,0,0,1,1.31,3,3.22,3.22,0,0,1-2,3.11M20.75,93.2h9.07a.78.78,0,0,0,.51-.15,1.13,1.13,0,0,0,.28-.54H31v3.82h-.35a1.13,1.13,0,0,0-.28-.54.78.78,0,0,0-.51-.15h-13v-.35a1.13,1.13,0,0,0,.54-.28.78.78,0,0,0,.15-.51V82a.76.76,0,0,0-.15-.51,1.13,1.13,0,0,0-.54-.28v-.35h4.61v.35a1,1,0,0,0-.54.28.76.76,0,0,0-.15.51Zm-16.83-4v4h9.49a.73.73,0,0,0,.5-.15,1,1,0,0,0,.28-.54h.35v3.82h-.35a1,1,0,0,0-.28-.54.73.73,0,0,0-.5-.15H0v-.35A1.13,1.13,0,0,0,.54,95a.78.78,0,0,0,.15-.51V82a.76.76,0,0,0-.15-.51A1.13,1.13,0,0,0,0,81.22v-.35H13.15a.73.73,0,0,0,.5-.15,1.13,1.13,0,0,0,.28-.55h.35V84h-.35a1,1,0,0,0-.28-.53.73.73,0,0,0-.5-.15H3.92v3.5h6a.75.75,0,0,0,.5-.15,1.33,1.33,0,0,0,.28-.55H11v3.74h-.35a1.23,1.23,0,0,0-.28-.53.7.7,0,0,0-.5-.16Z"/></g></g></svg>